<?xml version="1.0" standalone="no"?>
<!DOCTYPE svg PUBLIC "-//W3C//DTD SVG 20010904//EN"
 "http://www.w3.org/TR/2001/REC-SVG-20010904/DTD/svg10.dtd">
<svg version="1.0" xmlns="http://www.w3.org/2000/svg"
 width="225.000000pt" height="225.000000pt" viewBox="0 0 225.000000 225.000000"
 preserveAspectRatio="xMidYMid meet">

<g transform="translate(0.000000,225.000000) scale(0.100000,-0.100000)"
fill="#000000" stroke="none">
<path d="M1005 2079 c-294 -149 -482 -253 -507 -280 -27 -28 -28 -33 -28 -142
l0 -113 -166 -79 c-106 -51 -174 -89 -190 -108 l-24 -29 0 -499 0 -499 599 0
598 0 27 -40 c36 -55 114 -103 224 -140 129 -43 197 -48 302 -21 107 28 216
79 258 122 64 63 63 62 60 366 l-3 275 -26 22 c-14 12 -82 41 -152 65 l-127
43 0 362 c-1 328 -2 364 -19 395 -14 27 -44 48 -147 103 -326 175 -496 258
-527 258 -19 0 -82 -26 -152 -61z m312 -70 c320 -166 439 -232 456 -251 15
-18 17 -51 17 -365 l0 -344 -43 6 c-30 5 -55 2 -81 -9 -21 -9 -42 -16 -46 -16
-4 0 -15 20 -24 44 -9 24 -24 50 -34 59 -9 8 -168 81 -352 162 -184 81 -341
152 -347 158 -9 6 -13 39 -13 98 0 76 -3 92 -20 109 -11 11 -28 20 -37 20 -10
0 -72 -24 -138 -54 -66 -30 -123 -52 -127 -49 -12 7 -9 139 3 166 8 17 60 50
172 110 323 170 437 227 456 227 11 0 82 -32 158 -71z m-527 -1004 l0 -615
-320 0 -320 0 0 463 c0 429 1 465 18 479 17 15 600 288 615 288 4 0 7 -277 7
-615z m280 290 c468 -208 453 -200 478 -258 11 -25 10 -29 -5 -34 -10 -2 -63
-21 -117 -41 -144 -54 -137 -38 -144 -331 l-5 -241 -213 0 -214 0 0 501 c0
397 3 500 13 496 6 -3 100 -44 207 -92z m825 -349 c86 -30 167 -62 181 -70
l24 -16 0 -260 0 -259 -31 -36 c-67 -75 -263 -143 -382 -131 -120 12 -289 88
-325 146 -15 24 -19 537 -4 552 12 12 341 127 364 127 9 1 87 -23 173 -53z"/>
<path d="M1085 1886 c-62 -28 -105 -94 -105 -161 0 -136 148 -219 267 -150
112 66 111 238 -2 302 -46 26 -113 30 -160 9z m128 -57 c34 -15 57 -60 57
-109 0 -34 -6 -48 -34 -76 -28 -28 -41 -34 -78 -34 -71 0 -118 50 -118 126 0
53 53 104 109 104 22 0 51 -5 64 -11z"/>
<path d="M209 1224 c-18 -22 -19 -155 0 -177 19 -24 212 -25 235 -1 24 24 22
155 -2 177 -27 24 -213 25 -233 1z m201 -89 l0 -55 -80 0 -80 0 0 55 0 55 80
0 80 0 0 -55z"/>
<path d="M496 1224 c-12 -11 -16 -35 -16 -89 0 -101 5 -105 134 -105 66 0 106
4 114 12 7 7 12 43 12 89 0 105 -5 109 -130 109 -76 0 -102 -4 -114 -16z m194
-89 l0 -55 -80 0 -80 0 0 55 0 55 80 0 80 0 0 -55z"/>
<path d="M215 976 c-15 -11 -19 -27 -19 -88 -1 -105 2 -108 130 -108 129 0
134 4 134 104 0 100 -8 106 -131 106 -65 0 -101 -4 -114 -14z m195 -91 l0 -55
-80 0 -80 0 0 55 0 55 80 0 80 0 0 -55z"/>
<path d="M497 972 c-23 -26 -24 -154 -1 -176 20 -20 213 -23 232 -4 7 7 12 44
12 95 0 101 -2 103 -133 103 -78 0 -97 -3 -110 -18z m193 -87 l0 -55 -80 0
-80 0 0 55 0 55 80 0 80 0 0 -55z"/>
<path d="M216 727 c-15 -11 -19 -29 -20 -90 -1 -98 6 -106 106 -114 136 -10
158 5 158 111 0 100 -8 106 -131 106 -63 0 -101 -4 -113 -13z m194 -92 l0 -55
-80 0 -80 0 0 55 0 55 80 0 80 0 0 -55z"/>
<path d="M496 724 c-12 -11 -16 -36 -16 -93 0 -103 4 -106 130 -106 126 0 130
3 130 106 0 105 -4 109 -130 109 -76 0 -102 -4 -114 -16z m194 -89 l0 -55 -80
0 -80 0 0 55 0 55 80 0 80 0 0 -55z"/>
<path d="M966 974 c-20 -19 -23 -163 -4 -182 8 -8 49 -12 120 -12 127 0 128 1
128 108 0 95 -9 102 -133 102 -74 0 -99 -4 -111 -16z m194 -89 l0 -55 -80 0
-80 0 0 55 0 55 80 0 80 0 0 -55z"/>
<path d="M967 722 c-13 -14 -17 -38 -17 -94 0 -99 5 -103 132 -103 121 0 128
6 128 105 0 102 -9 110 -129 110 -82 0 -101 -3 -114 -18z m193 -87 l0 -55 -80
0 -80 0 0 55 0 55 80 0 80 0 0 -55z"/>
<path d="M1690 585 l0 -325 30 0 30 0 0 325 0 325 -30 0 -30 0 0 -325z"/>
</g>
</svg>
