<?xml version="1.0" standalone="no"?>
<!DOCTYPE svg PUBLIC "-//W3C//DTD SVG 20010904//EN"
 "http://www.w3.org/TR/2001/REC-SVG-20010904/DTD/svg10.dtd">
<svg version="1.0" xmlns="http://www.w3.org/2000/svg"
 width="512.000000pt" height="512.000000pt" viewBox="0 0 512.000000 512.000000"
 preserveAspectRatio="xMidYMid meet">

<g transform="translate(0.000000,512.000000) scale(0.100000,-0.100000)"
fill="#000000" stroke="none">
<path d="M1338 3512 l-186 -378 -413 -58 c-228 -33 -416 -61 -419 -63 -3 -3
131 -138 298 -301 l302 -297 -71 -408 c-39 -225 -69 -411 -66 -413 5 -5 672
340 690 356 7 7 -27 90 -37 90 -2 0 -119 -61 -260 -136 -142 -75 -259 -134
-262 -131 -2 2 21 156 53 341 l57 337 -244 244 c-134 134 -242 246 -240 249 3
2 156 26 340 53 l335 48 152 305 c83 167 156 306 160 307 5 2 58 -96 118 -218
61 -121 113 -223 117 -225 12 -7 78 29 78 43 0 13 -307 633 -313 633 -2 0 -87
-170 -189 -378z"/>
<path d="M2341 3454 c-166 -336 -219 -436 -235 -439 -12 -3 -226 -34 -476 -71
-250 -36 -458 -69 -462 -72 -3 -4 150 -159 342 -344 288 -280 347 -341 343
-360 -48 -268 -160 -934 -158 -937 2 -2 195 96 428 218 233 121 430 221 437
221 8 0 204 -99 437 -221 234 -122 426 -220 428 -218 1 2 -34 218 -80 479
l-83 475 132 130 c72 72 229 226 349 342 119 117 214 214 210 216 -5 3 -213
35 -463 71 -250 37 -464 69 -476 71 -16 4 -68 101 -235 440 -118 239 -216 435
-219 435 -3 0 -101 -196 -219 -436z"/>
<path d="M3437 3583 c-87 -172 -157 -319 -157 -326 0 -14 66 -50 78 -43 4 2
56 104 117 225 60 122 113 220 118 218 4 -1 77 -140 160 -307 l152 -305 335
-48 c184 -27 337 -51 340 -53 2 -3 -106 -115 -240 -249 l-244 -244 57 -337
c32 -185 55 -339 53 -341 -3 -3 -120 56 -262 131 -141 75 -258 136 -260 136
-10 0 -44 -83 -37 -90 18 -16 685 -361 690 -356 3 2 -27 188 -66 413 l-71 408
302 297 c167 163 301 298 298 301 -3 2 -191 30 -419 63 l-413 58 -187 381
-188 380 -156 -312z"/>
</g>
</svg>
