<?xml version="1.0" standalone="no"?>
<!DOCTYPE svg PUBLIC "-//W3C//DTD SVG 20010904//EN"
 "http://www.w3.org/TR/2001/REC-SVG-20010904/DTD/svg10.dtd">
<svg version="1.0" xmlns="http://www.w3.org/2000/svg"
 width="900.000000pt" height="520.000000pt" viewBox="0 0 900.000000 520.000000"
 preserveAspectRatio="xMidYMid meet">

<g transform="translate(0.000000,520.000000) scale(0.100000,-0.100000)"
fill="#000000" stroke="none">
<path d="M3918 4980 c-219 -29 -407 -166 -503 -365 -52 -107 -65 -166 -65
-285 0 -119 13 -178 65 -285 111 -231 328 -367 585 -367 187 -1 325 57 460
192 53 52 97 108 117 145 106 202 106 428 0 630 -47 90 -183 221 -277 268
-121 60 -258 84 -382 67z"/>
<path d="M5889 4355 c-215 -52 -388 -222 -445 -438 -8 -29 -14 -73 -14 -98 0
-40 4 -49 28 -65 45 -29 132 -116 175 -173 55 -74 105 -188 126 -284 l17 -81
51 -18 c230 -79 481 -17 645 160 196 212 213 542 39 772 -81 109 -212 194
-344 225 -76 18 -203 18 -278 0z"/>
<path d="M2820 3744 c-138 -36 -265 -126 -346 -245 -68 -100 -95 -179 -101
-301 -7 -124 7 -200 59 -307 96 -201 308 -333 533 -334 96 0 166 15 258 56 53
24 69 35 73 56 20 87 30 115 71 199 34 71 64 113 129 181 l83 90 -5 53 c-9 94
-25 151 -66 237 -73 152 -222 273 -393 316 -74 19 -222 18 -295 -1z"/>
<path d="M4873 3741 c-212 -61 -378 -233 -428 -443 -26 -113 -23 -127 47 -178
122 -90 230 -258 264 -410 9 -41 19 -82 23 -90 10 -20 100 -49 182 -59 249
-32 502 106 612 332 47 96 61 163 60 277 -1 227 -131 431 -338 530 -44 21
-104 43 -133 49 -79 16 -217 12 -289 -8z"/>
<path d="M3610 3623 c-19 -2 -39 -8 -43 -12 -4 -4 10 -41 32 -82 44 -82 81
-202 81 -264 0 -63 7 -66 72 -39 171 72 343 75 544 9 19 -6 21 0 32 70 13 84
58 205 97 262 23 35 24 38 7 48 -17 10 -749 17 -822 8z"/>
<path d="M3900 3124 c-168 -36 -333 -167 -408 -324 -47 -100 -62 -163 -62
-268 0 -167 58 -303 179 -422 87 -87 165 -132 277 -160 313 -80 637 106 727
419 22 80 26 224 8 301 -78 323 -397 524 -721 454z"/>
<path d="M5776 3098 c-3 -13 -8 -47 -11 -76 -13 -112 -79 -258 -165 -362 l-48
-57 78 -32 c212 -87 382 -248 481 -456 69 -147 81 -201 86 -409 l5 -178 97 7
c250 17 506 73 681 149 l75 32 3 340 c1 205 -2 366 -8 409 -49 317 -295 574
-612 639 -60 12 -142 16 -367 16 l-291 0 -4 -22z"/>
<path d="M2555 2495 c-302 -66 -537 -304 -599 -607 -13 -62 -16 -147 -16 -432
l0 -355 68 -20 c278 -81 583 -140 802 -153 l45 -3 6 175 c5 127 12 194 26 245
55 197 172 374 325 491 63 49 201 125 260 144 l38 11 -50 62 c-92 114 -153
255 -168 389 l-7 63 -335 2 c-247 1 -351 -2 -395 -12z"/>
<path d="M4768 2418 c-26 -150 -80 -267 -175 -377 l-42 -49 62 -22 c148 -53
326 -191 423 -326 114 -159 162 -317 171 -562 l6 -163 81 6 c242 19 487 70
656 138 l105 42 3 355 c2 286 0 370 -13 431 -61 303 -297 541 -601 604 -55 11
-144 15 -366 15 l-294 0 -16 -92z"/>
<path d="M3665 1880 c-302 -44 -550 -265 -637 -566 -22 -76 -23 -92 -23 -459
l0 -380 145 -41 c513 -148 1043 -177 1505 -83 110 22 285 78 355 112 l45 22 3
358 c2 385 -2 435 -51 557 -41 100 -88 170 -172 256 -121 123 -262 195 -435
223 -73 12 -656 13 -735 1z"/>
</g>
</svg>
