<?xml version="1.0" standalone="no"?>
<!DOCTYPE svg PUBLIC "-//W3C//DTD SVG 20010904//EN"
 "http://www.w3.org/TR/2001/REC-SVG-20010904/DTD/svg10.dtd">
<svg version="1.0" xmlns="http://www.w3.org/2000/svg"
 width="512.000000pt" height="512.000000pt" viewBox="0 0 512.000000 512.000000"
 preserveAspectRatio="xMidYMid meet">

<g transform="translate(0.000000,512.000000) scale(0.100000,-0.100000)"
fill="#000000" stroke="none">
<path d="M999 4628 c-7 -13 -40 -66 -74 -118 -271 -412 -492 -930 -562 -1320
-26 -144 -23 -390 6 -495 61 -226 222 -424 425 -519 103 -49 164 -61 296 -60
237 3 435 94 757 347 23 18 23 18 110 -60 116 -103 174 -145 271 -193 153 -77
331 -100 496 -65 147 31 339 151 455 282 l49 57 37 -30 c185 -147 380 -255
530 -295 115 -30 294 -37 385 -15 144 35 256 103 372 224 153 160 218 338 218
595 0 248 -66 526 -205 862 -92 222 -254 526 -381 714 -35 51 -64 98 -64 102
0 5 -689 9 -1555 9 l-1554 0 -12 -22z m3073 -408 c157 -260 298 -563 376 -811
48 -148 72 -282 78 -424 10 -218 -27 -333 -150 -462 -112 -119 -226 -161 -384
-141 -161 20 -361 127 -569 307 l-53 45 0 485 c0 443 -2 489 -18 520 -25 50
-61 73 -116 73 -53 1 -87 -19 -123 -72 l-23 -33 0 -490 0 -489 -45 -63 c-106
-149 -276 -265 -415 -284 -120 -16 -244 15 -359 89 -68 44 -182 153 -229 219
l-32 44 0 499 c0 543 0 543 -56 587 -25 20 -38 22 -91 19 -43 -3 -69 -10 -84
-23 -48 -44 -49 -50 -49 -599 l0 -514 -82 -69 c-105 -88 -160 -125 -256 -173
-203 -101 -363 -109 -525 -28 -65 32 -174 144 -207 212 -52 107 -63 172 -57
336 8 221 59 421 184 715 83 198 256 522 345 648 l19 27 1417 -2 1417 -3 87
-145z"/>
<path d="M832 1836 l-37 -34 0 -519 0 -518 27 -57 c34 -74 112 -152 186 -186
l57 -27 1470 0 1470 0 57 27 c100 47 172 128 205 232 9 29 12 178 13 545 1
278 1 512 1 518 -3 52 -113 73 -166 31 -54 -43 -55 -48 -55 -553 0 -397 -2
-470 -15 -495 -33 -64 65 -60 -1480 -60 -1228 0 -1410 2 -1435 15 -62 32 -60
15 -60 520 0 253 -5 478 -10 500 -5 24 -21 51 -40 68 -26 23 -39 27 -90 27
-55 0 -64 -3 -98 -34z"/>
</g>
</svg>
