<?xml version="1.0" standalone="no"?>
<!DOCTYPE svg PUBLIC "-//W3C//DTD SVG 20010904//EN"
 "http://www.w3.org/TR/2001/REC-SVG-20010904/DTD/svg10.dtd">
<svg version="1.0" xmlns="http://www.w3.org/2000/svg"
 width="200.000000pt" height="200.000000pt" viewBox="0 0 200.000000 200.000000"
 preserveAspectRatio="xMidYMid meet">

<g transform="translate(0.000000,200.000000) scale(0.100000,-0.100000)"
fill="#000000" stroke="none">
<path d="M106 1894 c-20 -19 -22 -144 -4 -162 7 -7 36 -12 65 -12 l53 0 0
-717 -1 -718 -41 -20 c-49 -23 -74 -56 -83 -106 -13 -74 -78 -69 905 -69 983
0 918 -5 905 69 -9 50 -34 83 -83 106 l-41 20 -1 718 0 717 53 0 c29 0 58 5
65 12 18 18 16 143 -4 162 -14 14 -109 16 -894 16 -785 0 -880 -2 -894 -16z
m1734 -84 l0 -30 -840 0 -840 0 0 30 0 30 840 0 840 0 0 -30z m-120 -810 l0
-720 -720 0 -720 0 0 720 0 720 720 0 720 0 0 -720z m94 -801 c14 -11 26 -25
26 -30 0 -5 -330 -9 -840 -9 -510 0 -840 4 -840 9 0 5 12 19 26 30 26 21 33
21 814 21 781 0 788 0 814 -21z"/>
<path d="M476 1638 c-8 -13 -42 -91 -75 -174 -54 -135 -60 -155 -50 -182 6
-17 21 -38 35 -47 l24 -15 0 -281 0 -281 -30 -28 c-43 -40 -43 -98 1 -134 l31
-26 588 0 588 0 31 26 c44 36 44 94 1 134 l-30 28 0 281 0 281 24 15 c14 9 29
30 35 47 10 27 4 47 -50 182 -33 83 -67 161 -75 174 l-14 22 -510 0 -510 0
-14 -22z m114 -198 c0 -125 -3 -152 -15 -156 -8 -4 -22 -1 -30 6 -12 10 -15
41 -15 156 l0 144 30 0 30 0 0 -150z m130 6 c0 -115 -3 -146 -15 -156 -8 -7
-22 -10 -30 -6 -12 4 -15 31 -15 156 l0 150 30 0 30 0 0 -144z m120 -6 c0
-125 -3 -152 -15 -156 -8 -4 -22 -1 -30 6 -12 10 -15 41 -15 156 l0 144 30 0
30 0 0 -150z m130 6 c0 -115 -3 -146 -15 -156 -8 -7 -22 -10 -30 -6 -12 4 -15
31 -15 156 l0 150 30 0 30 0 0 -144z m120 -6 c0 -125 -3 -152 -15 -156 -8 -4
-22 -1 -30 6 -12 10 -15 41 -15 156 l0 144 30 0 30 0 0 -150z m130 6 c0 -115
-3 -146 -15 -156 -8 -7 -22 -10 -30 -6 -12 4 -15 31 -15 156 l0 150 30 0 30 0
0 -144z m120 -6 c0 -125 -3 -152 -15 -156 -8 -4 -22 -1 -30 6 -12 10 -15 41
-15 156 l0 144 30 0 30 0 0 -150z m130 6 c0 -115 -3 -146 -15 -156 -8 -7 -22
-10 -30 -6 -12 4 -15 31 -15 156 l0 150 30 0 30 0 0 -144z m-1011 -152 c-15
-18 -38 -18 -45 1 -3 8 7 47 23 87 l28 73 3 -73 c2 -46 -2 -79 -9 -88z m1121
44 c17 -45 3 -71 -28 -52 -13 9 -17 28 -19 90 l-2 79 18 -40 c10 -22 24 -57
31 -77z m-1027 -116 c16 -2 39 1 52 8 20 11 27 11 40 0 9 -8 28 -10 52 -6 47
8 59 8 106 0 24 -4 43 -2 52 6 13 11 20 11 40 0 14 -8 36 -10 57 -6 40 8 52 8
101 0 24 -4 43 -2 52 6 13 11 20 11 40 0 14 -8 36 -10 57 -6 18 4 40 7 48 7 8
0 30 -3 48 -7 21 -4 43 -2 58 7 19 10 27 10 36 1 15 -15 63 -16 88 -2 10 5 26
7 34 4 14 -5 16 -41 16 -290 l0 -284 -155 0 -155 0 0 26 c0 52 -25 109 -67
153 -24 24 -43 46 -43 48 0 2 10 17 22 33 28 39 30 112 2 158 -58 100 -206
101 -267 3 -29 -47 -28 -121 1 -161 12 -16 22 -31 22 -33 0 -2 -19 -24 -43
-48 -42 -44 -67 -101 -67 -153 l0 -26 -155 0 -155 0 0 284 c0 294 1 303 40
289 8 -3 28 -8 43 -11z m512 -157 c35 -34 35 -96 0 -130 -34 -35 -96 -35 -130
0 -35 34 -35 96 0 130 18 19 35 25 65 25 30 0 47 -6 65 -25z m15 -247 c46 -32
68 -66 76 -115 l7 -43 -163 0 -163 0 7 43 c12 80 77 137 156 137 32 0 57 -7
80 -22z m506 -243 c4 -8 1 -22 -6 -30 -19 -23 -1141 -23 -1160 0 -7 8 -10 22
-6 30 5 13 77 15 586 15 509 0 581 -2 586 -15z"/>
</g>
</svg>
